<mxfile host="app.diagrams.net" modified="2023-11-20T15:50:09.535Z" agent="Mozilla/5.0 (Windows NT 10.0; Win64; x64) AppleWebKit/537.36 (KHTML, like Gecko) Chrome/119.0.0.0 Safari/537.36 Edg/119.0.0.0" version="22.1.3" etag="ebBOZrS3p6mrx5Tva0Kn" type="device">
  <diagram id="oYSyiWAunkXc9wsSN6fQ" name="ER Diagram">
    <mxGraphModel dx="1188" dy="654" grid="1" gridSize="10" guides="1" tooltips="1" connect="1" arrows="1" fold="1" page="1" pageScale="1" pageWidth="827" pageHeight="1169" math="0" shadow="0">
      <root>
        <mxCell id="0" />
        <mxCell id="1" parent="0" />
        <mxCell id="C27r3Ign7F5DlAzLfvgG-10" style="edgeStyle=orthogonalEdgeStyle;rounded=0;orthogonalLoop=1;jettySize=auto;html=1;exitX=0.5;exitY=1;exitDx=0;exitDy=0;endArrow=none;endFill=0;" edge="1" parent="1" source="C27r3Ign7F5DlAzLfvgG-1" target="C27r3Ign7F5DlAzLfvgG-8">
          <mxGeometry relative="1" as="geometry" />
        </mxCell>
        <mxCell id="C27r3Ign7F5DlAzLfvgG-1" value="Product" style="whiteSpace=wrap;html=1;align=center;" vertex="1" parent="1">
          <mxGeometry x="560" y="502.5" width="160" height="30" as="geometry" />
        </mxCell>
        <mxCell id="C27r3Ign7F5DlAzLfvgG-2" value="Sale" style="whiteSpace=wrap;html=1;align=center;" vertex="1" parent="1">
          <mxGeometry x="160" y="470" width="160" height="30" as="geometry" />
        </mxCell>
        <mxCell id="C27r3Ign7F5DlAzLfvgG-3" value="Cart" style="whiteSpace=wrap;html=1;align=center;" vertex="1" parent="1">
          <mxGeometry x="160" y="542.5" width="160" height="30" as="geometry" />
        </mxCell>
        <mxCell id="C27r3Ign7F5DlAzLfvgG-4" value="Discount" style="whiteSpace=wrap;html=1;align=center;" vertex="1" parent="1">
          <mxGeometry x="580" y="680" width="120" height="30" as="geometry" />
        </mxCell>
        <mxCell id="C27r3Ign7F5DlAzLfvgG-6" value="Inventory&lt;br&gt;Change" style="shape=rhombus;perimeter=rhombusPerimeter;whiteSpace=wrap;html=1;align=center;" vertex="1" parent="1">
          <mxGeometry x="380" y="460" width="110" height="50" as="geometry" />
        </mxCell>
        <mxCell id="C27r3Ign7F5DlAzLfvgG-7" value="Add" style="shape=rhombus;perimeter=rhombusPerimeter;whiteSpace=wrap;html=1;align=center;" vertex="1" parent="1">
          <mxGeometry x="380" y="532.5" width="110" height="50" as="geometry" />
        </mxCell>
        <mxCell id="C27r3Ign7F5DlAzLfvgG-9" style="edgeStyle=orthogonalEdgeStyle;rounded=0;orthogonalLoop=1;jettySize=auto;html=1;exitX=0.5;exitY=1;exitDx=0;exitDy=0;endArrow=none;endFill=0;shape=link;" edge="1" parent="1" source="C27r3Ign7F5DlAzLfvgG-8" target="C27r3Ign7F5DlAzLfvgG-4">
          <mxGeometry relative="1" as="geometry" />
        </mxCell>
        <mxCell id="C27r3Ign7F5DlAzLfvgG-8" value="Apply" style="shape=rhombus;perimeter=rhombusPerimeter;whiteSpace=wrap;html=1;align=center;" vertex="1" parent="1">
          <mxGeometry x="585" y="585" width="110" height="50" as="geometry" />
        </mxCell>
        <mxCell id="C27r3Ign7F5DlAzLfvgG-12" style="rounded=0;orthogonalLoop=1;jettySize=auto;html=1;exitX=0;exitY=0.5;exitDx=0;exitDy=0;endArrow=none;endFill=0;entryX=1;entryY=0.5;entryDx=0;entryDy=0;" edge="1" parent="1" source="C27r3Ign7F5DlAzLfvgG-1" target="C27r3Ign7F5DlAzLfvgG-6">
          <mxGeometry relative="1" as="geometry">
            <mxPoint x="610" y="550" as="sourcePoint" />
            <mxPoint x="610" y="595" as="targetPoint" />
          </mxGeometry>
        </mxCell>
        <mxCell id="C27r3Ign7F5DlAzLfvgG-13" style="rounded=0;orthogonalLoop=1;jettySize=auto;html=1;exitX=0;exitY=0.5;exitDx=0;exitDy=0;endArrow=none;endFill=0;entryX=1;entryY=0.5;entryDx=0;entryDy=0;" edge="1" parent="1" source="C27r3Ign7F5DlAzLfvgG-1" target="C27r3Ign7F5DlAzLfvgG-7">
          <mxGeometry relative="1" as="geometry">
            <mxPoint x="550" y="535" as="sourcePoint" />
            <mxPoint x="490" y="495" as="targetPoint" />
          </mxGeometry>
        </mxCell>
        <mxCell id="C27r3Ign7F5DlAzLfvgG-14" style="edgeStyle=orthogonalEdgeStyle;rounded=0;orthogonalLoop=1;jettySize=auto;html=1;exitX=0;exitY=0.5;exitDx=0;exitDy=0;endArrow=none;endFill=0;shape=link;entryX=1;entryY=0.5;entryDx=0;entryDy=0;" edge="1" parent="1" source="C27r3Ign7F5DlAzLfvgG-6" target="C27r3Ign7F5DlAzLfvgG-2">
          <mxGeometry relative="1" as="geometry">
            <mxPoint x="360" y="490" as="sourcePoint" />
            <mxPoint x="360" y="535" as="targetPoint" />
          </mxGeometry>
        </mxCell>
        <mxCell id="C27r3Ign7F5DlAzLfvgG-15" style="edgeStyle=orthogonalEdgeStyle;rounded=0;orthogonalLoop=1;jettySize=auto;html=1;exitX=0;exitY=0.5;exitDx=0;exitDy=0;endArrow=none;endFill=0;shape=link;entryX=1;entryY=0.5;entryDx=0;entryDy=0;" edge="1" parent="1" source="C27r3Ign7F5DlAzLfvgG-7" target="C27r3Ign7F5DlAzLfvgG-3">
          <mxGeometry relative="1" as="geometry">
            <mxPoint x="380" y="617" as="sourcePoint" />
            <mxPoint x="330" y="552" as="targetPoint" />
          </mxGeometry>
        </mxCell>
        <mxCell id="C27r3Ign7F5DlAzLfvgG-16" value="count" style="ellipse;whiteSpace=wrap;html=1;align=center;" vertex="1" parent="1">
          <mxGeometry x="413" y="390" width="50" height="30" as="geometry" />
        </mxCell>
        <mxCell id="C27r3Ign7F5DlAzLfvgG-17" value="price_paid" style="ellipse;whiteSpace=wrap;html=1;align=center;" vertex="1" parent="1">
          <mxGeometry x="470" y="400" width="80" height="30" as="geometry" />
        </mxCell>
        <mxCell id="C27r3Ign7F5DlAzLfvgG-18" value="is_income" style="ellipse;whiteSpace=wrap;html=1;align=center;" vertex="1" parent="1">
          <mxGeometry x="130" y="390" width="70" height="30" as="geometry" />
        </mxCell>
        <mxCell id="C27r3Ign7F5DlAzLfvgG-19" value="created_at" style="ellipse;whiteSpace=wrap;html=1;align=center;" vertex="1" parent="1">
          <mxGeometry x="80" y="420" width="80" height="30" as="geometry" />
        </mxCell>
        <mxCell id="C27r3Ign7F5DlAzLfvgG-20" value="sale_id" style="ellipse;whiteSpace=wrap;html=1;align=center;fontStyle=4;" vertex="1" parent="1">
          <mxGeometry x="50" y="460" width="70" height="30" as="geometry" />
        </mxCell>
        <mxCell id="C27r3Ign7F5DlAzLfvgG-22" style="edgeStyle=orthogonalEdgeStyle;rounded=0;orthogonalLoop=1;jettySize=auto;html=1;exitX=0.5;exitY=1;exitDx=0;exitDy=0;" edge="1" parent="1" source="C27r3Ign7F5DlAzLfvgG-19" target="C27r3Ign7F5DlAzLfvgG-19">
          <mxGeometry relative="1" as="geometry" />
        </mxCell>
        <mxCell id="C27r3Ign7F5DlAzLfvgG-23" value="total_price" style="ellipse;whiteSpace=wrap;html=1;align=center;" vertex="1" parent="1">
          <mxGeometry x="210" y="390" width="70" height="30" as="geometry" />
        </mxCell>
        <mxCell id="C27r3Ign7F5DlAzLfvgG-24" value="payment" style="ellipse;whiteSpace=wrap;html=1;align=center;" vertex="1" parent="1">
          <mxGeometry x="280" y="410" width="70" height="30" as="geometry" />
        </mxCell>
        <mxCell id="C27r3Ign7F5DlAzLfvgG-25" value="product_id" style="ellipse;whiteSpace=wrap;html=1;align=center;fontStyle=4;" vertex="1" parent="1">
          <mxGeometry x="585" y="430" width="80" height="30" as="geometry" />
        </mxCell>
        <mxCell id="C27r3Ign7F5DlAzLfvgG-26" value="name" style="ellipse;whiteSpace=wrap;html=1;align=center;" vertex="1" parent="1">
          <mxGeometry x="660" y="410" width="60" height="30" as="geometry" />
        </mxCell>
        <mxCell id="C27r3Ign7F5DlAzLfvgG-27" value="provider" style="ellipse;whiteSpace=wrap;html=1;align=center;" vertex="1" parent="1">
          <mxGeometry x="723.5" y="430" width="63" height="30" as="geometry" />
        </mxCell>
        <mxCell id="C27r3Ign7F5DlAzLfvgG-28" value="provider_address" style="ellipse;whiteSpace=wrap;html=1;align=center;" vertex="1" parent="1">
          <mxGeometry x="770" y="460" width="120" height="30" as="geometry" />
        </mxCell>
        <mxCell id="C27r3Ign7F5DlAzLfvgG-29" value="regular_price" style="ellipse;whiteSpace=wrap;html=1;align=center;" vertex="1" parent="1">
          <mxGeometry x="1690" y="860" width="90" height="30" as="geometry" />
        </mxCell>
        <mxCell id="C27r3Ign7F5DlAzLfvgG-31" value="regular_price" style="ellipse;whiteSpace=wrap;html=1;align=center;" vertex="1" parent="1">
          <mxGeometry x="820" y="500" width="90" height="30" as="geometry" />
        </mxCell>
        <mxCell id="C27r3Ign7F5DlAzLfvgG-32" value="barcode" style="ellipse;whiteSpace=wrap;html=1;align=center;" vertex="1" parent="1">
          <mxGeometry x="800" y="532.5" width="70" height="30" as="geometry" />
        </mxCell>
        <mxCell id="C27r3Ign7F5DlAzLfvgG-33" value="origin_country" style="ellipse;whiteSpace=wrap;html=1;align=center;" vertex="1" parent="1">
          <mxGeometry x="760" y="569.5" width="90" height="30" as="geometry" />
        </mxCell>
        <mxCell id="C27r3Ign7F5DlAzLfvgG-34" value="inventory" style="ellipse;whiteSpace=wrap;html=1;align=center;" vertex="1" parent="1">
          <mxGeometry x="720" y="605" width="70" height="30" as="geometry" />
        </mxCell>
        <mxCell id="C27r3Ign7F5DlAzLfvgG-35" value="discount_id" style="ellipse;whiteSpace=wrap;html=1;align=center;fontStyle=4;" vertex="1" parent="1">
          <mxGeometry x="490" y="740" width="80" height="30" as="geometry" />
        </mxCell>
        <mxCell id="C27r3Ign7F5DlAzLfvgG-36" value="rate" style="ellipse;whiteSpace=wrap;html=1;align=center;" vertex="1" parent="1">
          <mxGeometry x="580" y="740" width="45" height="30" as="geometry" />
        </mxCell>
        <mxCell id="C27r3Ign7F5DlAzLfvgG-37" value="start_date" style="ellipse;whiteSpace=wrap;html=1;align=center;" vertex="1" parent="1">
          <mxGeometry x="640" y="740" width="70" height="30" as="geometry" />
        </mxCell>
        <mxCell id="C27r3Ign7F5DlAzLfvgG-38" value="end_date" style="ellipse;whiteSpace=wrap;html=1;align=center;" vertex="1" parent="1">
          <mxGeometry x="716.5" y="740" width="70" height="30" as="geometry" />
        </mxCell>
        <mxCell id="C27r3Ign7F5DlAzLfvgG-39" value="cart_id" style="ellipse;whiteSpace=wrap;html=1;align=center;fontStyle=4;" vertex="1" parent="1">
          <mxGeometry x="100" y="605" width="70" height="30" as="geometry" />
        </mxCell>
        <mxCell id="C27r3Ign7F5DlAzLfvgG-40" value="count" style="ellipse;whiteSpace=wrap;html=1;align=center;" vertex="1" parent="1">
          <mxGeometry x="180" y="620" width="60" height="30" as="geometry" />
        </mxCell>
        <mxCell id="C27r3Ign7F5DlAzLfvgG-41" value="final_price" style="ellipse;whiteSpace=wrap;html=1;align=center;" vertex="1" parent="1">
          <mxGeometry x="250" y="620" width="80" height="30" as="geometry" />
        </mxCell>
        <mxCell id="C27r3Ign7F5DlAzLfvgG-43" value="N" style="text;html=1;strokeColor=none;fillColor=none;align=center;verticalAlign=middle;whiteSpace=wrap;rounded=0;" vertex="1" parent="1">
          <mxGeometry x="370" y="460" width="20" height="30" as="geometry" />
        </mxCell>
        <mxCell id="C27r3Ign7F5DlAzLfvgG-44" value="M" style="text;html=1;strokeColor=none;fillColor=none;align=center;verticalAlign=middle;whiteSpace=wrap;rounded=0;" vertex="1" parent="1">
          <mxGeometry x="490" y="460" width="20" height="30" as="geometry" />
        </mxCell>
        <mxCell id="C27r3Ign7F5DlAzLfvgG-45" value="1" style="text;html=1;strokeColor=none;fillColor=none;align=center;verticalAlign=middle;whiteSpace=wrap;rounded=0;" vertex="1" parent="1">
          <mxGeometry x="370" y="530" width="20" height="30" as="geometry" />
        </mxCell>
        <mxCell id="C27r3Ign7F5DlAzLfvgG-46" value="N" style="text;html=1;strokeColor=none;fillColor=none;align=center;verticalAlign=middle;whiteSpace=wrap;rounded=0;" vertex="1" parent="1">
          <mxGeometry x="480" y="532.5" width="20" height="30" as="geometry" />
        </mxCell>
        <mxCell id="C27r3Ign7F5DlAzLfvgG-47" value="1" style="text;html=1;strokeColor=none;fillColor=none;align=center;verticalAlign=middle;whiteSpace=wrap;rounded=0;" vertex="1" parent="1">
          <mxGeometry x="640" y="562.5" width="20" height="30" as="geometry" />
        </mxCell>
        <mxCell id="C27r3Ign7F5DlAzLfvgG-48" value="1" style="text;html=1;strokeColor=none;fillColor=none;align=center;verticalAlign=middle;whiteSpace=wrap;rounded=0;" vertex="1" parent="1">
          <mxGeometry x="645" y="630" width="20" height="30" as="geometry" />
        </mxCell>
        <mxCell id="C27r3Ign7F5DlAzLfvgG-49" style="rounded=0;orthogonalLoop=1;jettySize=auto;html=1;exitX=0;exitY=0.5;exitDx=0;exitDy=0;endArrow=none;endFill=0;entryX=1;entryY=0.5;entryDx=0;entryDy=0;" edge="1" parent="1" source="C27r3Ign7F5DlAzLfvgG-2" target="C27r3Ign7F5DlAzLfvgG-20">
          <mxGeometry relative="1" as="geometry">
            <mxPoint x="570" y="528" as="sourcePoint" />
            <mxPoint x="500" y="495" as="targetPoint" />
          </mxGeometry>
        </mxCell>
        <mxCell id="C27r3Ign7F5DlAzLfvgG-50" style="rounded=0;orthogonalLoop=1;jettySize=auto;html=1;exitX=0.488;exitY=0.011;exitDx=0;exitDy=0;endArrow=none;endFill=0;entryX=1;entryY=1;entryDx=0;entryDy=0;exitPerimeter=0;" edge="1" parent="1" source="C27r3Ign7F5DlAzLfvgG-2" target="C27r3Ign7F5DlAzLfvgG-19">
          <mxGeometry relative="1" as="geometry">
            <mxPoint x="170" y="495" as="sourcePoint" />
            <mxPoint x="130" y="485" as="targetPoint" />
          </mxGeometry>
        </mxCell>
        <mxCell id="C27r3Ign7F5DlAzLfvgG-51" style="rounded=0;orthogonalLoop=1;jettySize=auto;html=1;exitX=0.5;exitY=0;exitDx=0;exitDy=0;endArrow=none;endFill=0;entryX=0.5;entryY=1;entryDx=0;entryDy=0;" edge="1" parent="1" source="C27r3Ign7F5DlAzLfvgG-2" target="C27r3Ign7F5DlAzLfvgG-18">
          <mxGeometry relative="1" as="geometry">
            <mxPoint x="210" y="480" as="sourcePoint" />
            <mxPoint x="158" y="456" as="targetPoint" />
          </mxGeometry>
        </mxCell>
        <mxCell id="C27r3Ign7F5DlAzLfvgG-52" style="rounded=0;orthogonalLoop=1;jettySize=auto;html=1;endArrow=none;endFill=0;entryX=0.5;entryY=1;entryDx=0;entryDy=0;" edge="1" parent="1" target="C27r3Ign7F5DlAzLfvgG-23">
          <mxGeometry relative="1" as="geometry">
            <mxPoint x="240" y="470" as="sourcePoint" />
            <mxPoint x="175" y="430" as="targetPoint" />
          </mxGeometry>
        </mxCell>
        <mxCell id="C27r3Ign7F5DlAzLfvgG-53" style="rounded=0;orthogonalLoop=1;jettySize=auto;html=1;endArrow=none;endFill=0;entryX=0.5;entryY=1;entryDx=0;entryDy=0;exitX=0.5;exitY=0;exitDx=0;exitDy=0;" edge="1" parent="1" source="C27r3Ign7F5DlAzLfvgG-2" target="C27r3Ign7F5DlAzLfvgG-24">
          <mxGeometry relative="1" as="geometry">
            <mxPoint x="250" y="480" as="sourcePoint" />
            <mxPoint x="255" y="430" as="targetPoint" />
          </mxGeometry>
        </mxCell>
        <mxCell id="C27r3Ign7F5DlAzLfvgG-54" style="rounded=0;orthogonalLoop=1;jettySize=auto;html=1;endArrow=none;endFill=0;entryX=0.5;entryY=1;entryDx=0;entryDy=0;exitX=0.73;exitY=0.253;exitDx=0;exitDy=0;exitPerimeter=0;" edge="1" parent="1" source="C27r3Ign7F5DlAzLfvgG-6" target="C27r3Ign7F5DlAzLfvgG-16">
          <mxGeometry relative="1" as="geometry">
            <mxPoint x="260" y="490" as="sourcePoint" />
            <mxPoint x="265" y="440" as="targetPoint" />
          </mxGeometry>
        </mxCell>
        <mxCell id="C27r3Ign7F5DlAzLfvgG-55" style="rounded=0;orthogonalLoop=1;jettySize=auto;html=1;endArrow=none;endFill=0;entryX=0.5;entryY=1;entryDx=0;entryDy=0;exitX=0.718;exitY=0.247;exitDx=0;exitDy=0;exitPerimeter=0;" edge="1" parent="1" source="C27r3Ign7F5DlAzLfvgG-6" target="C27r3Ign7F5DlAzLfvgG-17">
          <mxGeometry relative="1" as="geometry">
            <mxPoint x="470" y="483" as="sourcePoint" />
            <mxPoint x="448" y="430" as="targetPoint" />
          </mxGeometry>
        </mxCell>
        <mxCell id="C27r3Ign7F5DlAzLfvgG-56" style="rounded=0;orthogonalLoop=1;jettySize=auto;html=1;endArrow=none;endFill=0;entryX=0.5;entryY=1;entryDx=0;entryDy=0;exitX=0.5;exitY=0;exitDx=0;exitDy=0;" edge="1" parent="1" source="C27r3Ign7F5DlAzLfvgG-1" target="C27r3Ign7F5DlAzLfvgG-25">
          <mxGeometry relative="1" as="geometry">
            <mxPoint x="469" y="482" as="sourcePoint" />
            <mxPoint x="520" y="440" as="targetPoint" />
          </mxGeometry>
        </mxCell>
        <mxCell id="C27r3Ign7F5DlAzLfvgG-57" style="rounded=0;orthogonalLoop=1;jettySize=auto;html=1;endArrow=none;endFill=0;entryX=0.5;entryY=1;entryDx=0;entryDy=0;exitX=0.5;exitY=0;exitDx=0;exitDy=0;" edge="1" parent="1" source="C27r3Ign7F5DlAzLfvgG-1" target="C27r3Ign7F5DlAzLfvgG-26">
          <mxGeometry relative="1" as="geometry">
            <mxPoint x="650" y="513" as="sourcePoint" />
            <mxPoint x="635" y="470" as="targetPoint" />
          </mxGeometry>
        </mxCell>
        <mxCell id="C27r3Ign7F5DlAzLfvgG-58" style="rounded=0;orthogonalLoop=1;jettySize=auto;html=1;endArrow=none;endFill=0;entryX=0;entryY=1;entryDx=0;entryDy=0;exitX=0.5;exitY=0;exitDx=0;exitDy=0;" edge="1" parent="1" source="C27r3Ign7F5DlAzLfvgG-1" target="C27r3Ign7F5DlAzLfvgG-27">
          <mxGeometry relative="1" as="geometry">
            <mxPoint x="660" y="523" as="sourcePoint" />
            <mxPoint x="645" y="480" as="targetPoint" />
          </mxGeometry>
        </mxCell>
        <mxCell id="C27r3Ign7F5DlAzLfvgG-59" style="rounded=0;orthogonalLoop=1;jettySize=auto;html=1;endArrow=none;endFill=0;entryX=0;entryY=0.5;entryDx=0;entryDy=0;exitX=1;exitY=0.5;exitDx=0;exitDy=0;" edge="1" parent="1" source="C27r3Ign7F5DlAzLfvgG-1" target="C27r3Ign7F5DlAzLfvgG-28">
          <mxGeometry relative="1" as="geometry">
            <mxPoint x="650" y="513" as="sourcePoint" />
            <mxPoint x="743" y="466" as="targetPoint" />
          </mxGeometry>
        </mxCell>
        <mxCell id="C27r3Ign7F5DlAzLfvgG-60" style="rounded=0;orthogonalLoop=1;jettySize=auto;html=1;endArrow=none;endFill=0;entryX=0;entryY=0.5;entryDx=0;entryDy=0;exitX=1;exitY=0.5;exitDx=0;exitDy=0;" edge="1" parent="1" source="C27r3Ign7F5DlAzLfvgG-1" target="C27r3Ign7F5DlAzLfvgG-31">
          <mxGeometry relative="1" as="geometry">
            <mxPoint x="730" y="528" as="sourcePoint" />
            <mxPoint x="780" y="485" as="targetPoint" />
          </mxGeometry>
        </mxCell>
        <mxCell id="C27r3Ign7F5DlAzLfvgG-61" style="rounded=0;orthogonalLoop=1;jettySize=auto;html=1;endArrow=none;endFill=0;entryX=0;entryY=0.5;entryDx=0;entryDy=0;exitX=1;exitY=0.5;exitDx=0;exitDy=0;" edge="1" parent="1" source="C27r3Ign7F5DlAzLfvgG-1" target="C27r3Ign7F5DlAzLfvgG-32">
          <mxGeometry relative="1" as="geometry">
            <mxPoint x="730" y="528" as="sourcePoint" />
            <mxPoint x="828" y="525" as="targetPoint" />
          </mxGeometry>
        </mxCell>
        <mxCell id="C27r3Ign7F5DlAzLfvgG-62" style="rounded=0;orthogonalLoop=1;jettySize=auto;html=1;endArrow=none;endFill=0;entryX=0;entryY=0;entryDx=0;entryDy=0;exitX=1;exitY=0.5;exitDx=0;exitDy=0;" edge="1" parent="1" source="C27r3Ign7F5DlAzLfvgG-1" target="C27r3Ign7F5DlAzLfvgG-33">
          <mxGeometry relative="1" as="geometry">
            <mxPoint x="730" y="528" as="sourcePoint" />
            <mxPoint x="830" y="525" as="targetPoint" />
          </mxGeometry>
        </mxCell>
        <mxCell id="C27r3Ign7F5DlAzLfvgG-63" style="rounded=0;orthogonalLoop=1;jettySize=auto;html=1;endArrow=none;endFill=0;entryX=0.5;entryY=0;entryDx=0;entryDy=0;exitX=1;exitY=0.5;exitDx=0;exitDy=0;" edge="1" parent="1" source="C27r3Ign7F5DlAzLfvgG-1" target="C27r3Ign7F5DlAzLfvgG-34">
          <mxGeometry relative="1" as="geometry">
            <mxPoint x="730" y="528" as="sourcePoint" />
            <mxPoint x="783" y="584" as="targetPoint" />
          </mxGeometry>
        </mxCell>
        <mxCell id="C27r3Ign7F5DlAzLfvgG-64" style="rounded=0;orthogonalLoop=1;jettySize=auto;html=1;endArrow=none;endFill=0;entryX=0.5;entryY=1;entryDx=0;entryDy=0;" edge="1" parent="1" source="C27r3Ign7F5DlAzLfvgG-35" target="C27r3Ign7F5DlAzLfvgG-4">
          <mxGeometry relative="1" as="geometry">
            <mxPoint x="740" y="538" as="sourcePoint" />
            <mxPoint x="793" y="594" as="targetPoint" />
          </mxGeometry>
        </mxCell>
        <mxCell id="C27r3Ign7F5DlAzLfvgG-65" style="rounded=0;orthogonalLoop=1;jettySize=auto;html=1;endArrow=none;endFill=0;exitX=0.5;exitY=0;exitDx=0;exitDy=0;" edge="1" parent="1" source="C27r3Ign7F5DlAzLfvgG-36">
          <mxGeometry relative="1" as="geometry">
            <mxPoint x="567" y="754" as="sourcePoint" />
            <mxPoint x="640" y="710" as="targetPoint" />
          </mxGeometry>
        </mxCell>
        <mxCell id="C27r3Ign7F5DlAzLfvgG-66" style="rounded=0;orthogonalLoop=1;jettySize=auto;html=1;endArrow=none;endFill=0;exitX=0.5;exitY=0;exitDx=0;exitDy=0;entryX=0.5;entryY=1;entryDx=0;entryDy=0;" edge="1" parent="1" source="C27r3Ign7F5DlAzLfvgG-37" target="C27r3Ign7F5DlAzLfvgG-4">
          <mxGeometry relative="1" as="geometry">
            <mxPoint x="613" y="750" as="sourcePoint" />
            <mxPoint x="650" y="720" as="targetPoint" />
          </mxGeometry>
        </mxCell>
        <mxCell id="C27r3Ign7F5DlAzLfvgG-67" style="rounded=0;orthogonalLoop=1;jettySize=auto;html=1;endArrow=none;endFill=0;exitX=0;exitY=0;exitDx=0;exitDy=0;" edge="1" parent="1" source="C27r3Ign7F5DlAzLfvgG-38">
          <mxGeometry relative="1" as="geometry">
            <mxPoint x="685" y="750" as="sourcePoint" />
            <mxPoint x="640" y="710" as="targetPoint" />
          </mxGeometry>
        </mxCell>
        <mxCell id="C27r3Ign7F5DlAzLfvgG-68" style="rounded=0;orthogonalLoop=1;jettySize=auto;html=1;exitX=0.5;exitY=1;exitDx=0;exitDy=0;endArrow=none;endFill=0;entryX=1;entryY=0;entryDx=0;entryDy=0;" edge="1" parent="1" source="C27r3Ign7F5DlAzLfvgG-3" target="C27r3Ign7F5DlAzLfvgG-39">
          <mxGeometry relative="1" as="geometry">
            <mxPoint x="170" y="495" as="sourcePoint" />
            <mxPoint x="130" y="485" as="targetPoint" />
          </mxGeometry>
        </mxCell>
        <mxCell id="C27r3Ign7F5DlAzLfvgG-69" style="rounded=0;orthogonalLoop=1;jettySize=auto;html=1;endArrow=none;endFill=0;entryX=0.5;entryY=0;entryDx=0;entryDy=0;exitX=0.5;exitY=1;exitDx=0;exitDy=0;" edge="1" parent="1" source="C27r3Ign7F5DlAzLfvgG-3" target="C27r3Ign7F5DlAzLfvgG-40">
          <mxGeometry relative="1" as="geometry">
            <mxPoint x="240" y="590" as="sourcePoint" />
            <mxPoint x="170" y="619" as="targetPoint" />
          </mxGeometry>
        </mxCell>
        <mxCell id="C27r3Ign7F5DlAzLfvgG-70" style="rounded=0;orthogonalLoop=1;jettySize=auto;html=1;endArrow=none;endFill=0;entryX=0.5;entryY=0;entryDx=0;entryDy=0;exitX=0.5;exitY=1;exitDx=0;exitDy=0;" edge="1" parent="1" source="C27r3Ign7F5DlAzLfvgG-3" target="C27r3Ign7F5DlAzLfvgG-41">
          <mxGeometry relative="1" as="geometry">
            <mxPoint x="260" y="600" as="sourcePoint" />
            <mxPoint x="220" y="630" as="targetPoint" />
          </mxGeometry>
        </mxCell>
      </root>
    </mxGraphModel>
  </diagram>
</mxfile>
